<svg width="1200" height="900" viewBox="0 0 1200 900" fill="none" xmlns="http://www.w3.org/2000/svg">
  <defs>
    <linearGradient id="g" x1="0" y1="0" x2="1200" y2="900" gradientUnits="userSpaceOnUse">
      <stop stop-color="#F7F4EE"/>
      <stop offset="1" stop-color="#1B1B1A"/>
    </linearGradient>
    <filter id="n" x="-20%" y="-20%" width="140%" height="140%">
      <feTurbulence type="fractalNoise" baseFrequency="0.6" numOctaves="2" stitchTiles="stitch"/>
      <feColorMatrix type="matrix" values="0 0 0 0 0
        0 0 0 0 0
        0 0 0 0 0
        0 0 0 .10 0"/>
      <feComposite operator="in" in2="SourceGraphic"/>
      <feBlend mode="multiply" in2="SourceGraphic"/>
    </filter>
  </defs>
  <rect width="1200" height="900" fill="url(#g)" opacity="0.12"/>
  <rect width="1200" height="900" fill="#F7F4EE"/>
  <path d="M80 140C260 260 420 290 590 240C760 190 900 190 1120 320" stroke="#1B1B1A" stroke-opacity="0.10" stroke-width="2"/>
  <path d="M60 520C280 420 460 430 620 520C780 610 960 640 1140 600" stroke="#1B1B1A" stroke-opacity="0.12" stroke-width="2"/>
  <path d="M90 260C250 430 410 530 620 560C830 590 980 550 1110 450" stroke="#C7A76A" stroke-opacity="0.35" stroke-width="2"/>
  <circle cx="1040" cy="740" r="6" fill="#B1002E"/>
  <text x="80" y="120" fill="#1B1B1A" fill-opacity="0.6" font-family="ui-sans-serif, system-ui" font-size="16" letter-spacing="0.22em">
    PLACEHOLDER MACRO
  </text>
</svg>

